<svg xmlns="http://www.w3.org/2000/svg" fill="none" viewBox="3 5 30 23">
<path fill-rule="evenodd" clip-rule="evenodd" d="M3 6.5C3 5.67157 3.67912 5 4.51685 5H31.4831C32.3209 5 33 5.67157 33 6.5C33 7.32843 32.3209 8 31.4831 8H4.51685C3.67912 8 3 7.32843 3 6.5Z" fill="black"/>
<path fill-rule="evenodd" clip-rule="evenodd" d="M3 16.5C3 15.6716 3.67912 15 4.51685 15H31.4831C32.3209 15 33 15.6716 33 16.5C33 17.3284 32.3209 18 31.4831 18H4.51685C3.67912 18 3 17.3284 3 16.5Z" fill="black"/>
<path fill-rule="evenodd" clip-rule="evenodd" d="M3 26.5C3 25.6716 3.67912 25 4.51685 25H31.4831C32.3209 25 33 25.6716 33 26.5C33 27.3284 32.3209 28 31.4831 28H4.51685C3.67912 28 3 27.3284 3 26.5Z" fill="black"/>
</svg>