<svg viewBox="76.06 714.32 1040.01 238.55" version="1.0" preserveAspectRatio="xMidYMid meet" zoomAndPan="magnify" xmlns:xlink="http://www.w3.org/1999/xlink" xmlns="http://www.w3.org/2000/svg" style="max-height: 500px" width="1040.01" height="238.55"><defs><g/></defs><g fill-opacity="1" fill="#d43434"><g transform="translate(71.155174, 897.486984)"><g><path d="M 77.53125 -178.90625 C 87.039062 -178.90625 96.335938 -177.519531 105.421875 -174.75 C 114.515625 -171.976562 121.257812 -169.242188 125.65625 -166.546875 L 132.046875 -162.296875 L 115.859375 -130.34375 C 114.585938 -131.195312 112.8125 -132.296875 110.53125 -133.640625 C 108.257812 -134.992188 104 -136.804688 97.75 -139.078125 C 91.507812 -141.347656 85.691406 -142.484375 80.296875 -142.484375 C 73.617188 -142.484375 68.46875 -141.0625 64.84375 -138.21875 C 61.226562 -135.382812 59.421875 -131.550781 59.421875 -126.71875 C 59.421875 -124.3125 60.269531 -122.078125 61.96875 -120.015625 C 63.675781 -117.953125 66.585938 -115.75 70.703125 -113.40625 C 74.828125 -111.070312 78.453125 -109.191406 81.578125 -107.765625 C 84.703125 -106.347656 89.53125 -104.21875 96.0625 -101.375 C 107.414062 -96.550781 117.101562 -89.984375 125.125 -81.671875 C 133.144531 -73.367188 137.15625 -63.960938 137.15625 -53.453125 C 137.15625 -43.378906 135.34375 -34.578125 131.71875 -27.046875 C 128.101562 -19.523438 123.132812 -13.632812 116.8125 -9.375 C 110.5 -5.113281 103.507812 -1.957031 95.84375 0.09375 C 88.175781 2.15625 79.867188 3.1875 70.921875 3.1875 C 63.253906 3.1875 55.726562 2.40625 48.34375 0.84375 C 40.957031 -0.707031 34.78125 -2.65625 29.8125 -5 C 24.84375 -7.34375 20.367188 -9.648438 16.390625 -11.921875 C 12.421875 -14.191406 9.515625 -16.109375 7.671875 -17.671875 L 4.90625 -20.015625 L 24.921875 -53.671875 C 26.617188 -52.253906 28.957031 -50.441406 31.9375 -48.234375 C 34.925781 -46.035156 40.21875 -43.085938 47.8125 -39.390625 C 55.40625 -35.703125 62.113281 -33.859375 67.9375 -33.859375 C 84.832031 -33.859375 93.28125 -39.609375 93.28125 -51.109375 C 93.28125 -53.523438 92.675781 -55.757812 91.46875 -57.8125 C 90.269531 -59.875 88.144531 -61.9375 85.09375 -64 C 82.039062 -66.0625 79.34375 -67.691406 77 -68.890625 C 74.65625 -70.097656 70.816406 -71.945312 65.484375 -74.4375 C 60.160156 -76.925781 56.222656 -78.804688 53.671875 -80.078125 C 43.023438 -85.335938 34.789062 -91.90625 28.96875 -99.78125 C 23.144531 -107.664062 20.234375 -116.148438 20.234375 -125.234375 C 20.234375 -140.992188 26.050781 -153.878906 37.6875 -163.890625 C 49.332031 -173.898438 62.613281 -178.90625 77.53125 -178.90625 Z M 77.53125 -178.90625"/></g></g></g><g fill-opacity="1" fill="#d43434"><g transform="translate(214.277505, 897.486984)"><g><path d="M 48.34375 -109.265625 L 48.34375 -57.296875 C 48.34375 -46.503906 49.972656 -38.832031 53.234375 -34.28125 C 56.503906 -29.738281 62.046875 -27.46875 69.859375 -27.46875 C 77.671875 -27.46875 83.207031 -29.738281 86.46875 -34.28125 C 89.738281 -38.832031 91.375 -46.503906 91.375 -57.296875 L 91.375 -109.265625 L 129.0625 -109.265625 L 129.0625 -48.140625 C 129.0625 -29.960938 124.335938 -16.863281 114.890625 -8.84375 C 105.453125 -0.820312 90.4375 3.1875 69.84375 3.1875 C 49.257812 3.1875 34.25 -0.820312 24.8125 -8.84375 C 15.375 -16.863281 10.65625 -29.960938 10.65625 -48.140625 L 10.65625 -109.265625 Z M 48.34375 -109.265625"/></g></g></g><g fill-opacity="1" fill="#d43434"><g transform="translate(353.992181, 897.486984)"><g><path d="M 125.234375 -95.734375 C 135.453125 -84.585938 140.5625 -70.921875 140.5625 -54.734375 C 140.5625 -38.546875 135.453125 -24.84375 125.234375 -13.625 C 115.015625 -2.414062 102.023438 3.1875 86.265625 3.1875 C 71.773438 3.1875 59.847656 -1.351562 50.484375 -10.4375 L 50.484375 55.375 L 12.78125 55.375 L 12.78125 -109.265625 L 50.046875 -109.265625 L 50.046875 -96.90625 L 50.484375 -96.90625 C 59.847656 -107.269531 71.773438 -112.453125 86.265625 -112.453125 C 102.023438 -112.453125 115.015625 -106.878906 125.234375 -95.734375 Z M 93.171875 -36.203125 C 98.078125 -41.035156 100.53125 -47.210938 100.53125 -54.734375 C 100.53125 -62.265625 98.1875 -68.40625 93.5 -73.15625 C 88.8125 -77.914062 82.632812 -80.296875 74.96875 -80.296875 C 67.582031 -80.296875 61.507812 -77.878906 56.75 -73.046875 C 52 -68.222656 49.625 -62.117188 49.625 -54.734375 C 49.625 -47.210938 52.070312 -41.035156 56.96875 -36.203125 C 61.875 -31.378906 67.875 -28.96875 74.96875 -28.96875 C 82.207031 -28.96875 88.273438 -31.378906 93.171875 -36.203125 Z M 93.171875 -36.203125"/></g></g></g><g fill-opacity="1" fill="#d43434"><g transform="translate(499.457284, 897.486984)"><g><path d="M 20.234375 -13.53125 C 10.015625 -24.675781 4.90625 -38.335938 4.90625 -54.515625 C 4.90625 -70.703125 10.015625 -84.40625 20.234375 -95.625 C 30.453125 -106.84375 43.441406 -112.453125 59.203125 -112.453125 C 73.691406 -112.453125 85.617188 -107.910156 94.984375 -98.828125 L 94.984375 -109.265625 L 132.6875 -109.265625 L 132.6875 0 L 95.421875 0 L 95.421875 -12.359375 L 94.984375 -12.359375 C 85.617188 -1.992188 73.691406 3.1875 59.203125 3.1875 C 43.441406 3.1875 30.453125 -2.382812 20.234375 -13.53125 Z M 52.28125 -73.046875 C 47.382812 -68.222656 44.9375 -62.046875 44.9375 -54.515625 C 44.9375 -46.992188 47.28125 -40.851562 51.96875 -36.09375 C 56.65625 -31.34375 62.832031 -28.96875 70.5 -28.96875 C 77.882812 -28.96875 83.953125 -31.378906 88.703125 -36.203125 C 93.460938 -41.035156 95.84375 -47.144531 95.84375 -54.53125 C 95.84375 -62.050781 93.390625 -68.222656 88.484375 -73.046875 C 83.585938 -77.878906 77.59375 -80.296875 70.5 -80.296875 C 63.257812 -80.296875 57.1875 -77.878906 52.28125 -73.046875 Z M 52.28125 -73.046875"/></g></g></g><g fill-opacity="1" fill="#6085a4"><g transform="translate(644.961337, 897.486984)"><g><path d="M 106.28125 -36.203125 C 112.382812 -36.203125 118.3125 -37.125 124.0625 -38.96875 C 129.8125 -40.820312 134.035156 -42.597656 136.734375 -44.296875 L 140.78125 -47.0625 L 157.828125 -12.984375 C 157.253906 -12.566406 156.46875 -12 155.46875 -11.28125 C 154.476562 -10.570312 152.171875 -9.257812 148.546875 -7.34375 C 144.929688 -5.425781 141.0625 -3.757812 136.9375 -2.34375 C 132.820312 -0.925781 127.425781 0.347656 120.75 1.484375 C 114.082031 2.617188 107.203125 3.1875 100.109375 3.1875 C 83.773438 3.1875 68.296875 -0.820312 53.671875 -8.84375 C 39.046875 -16.863281 27.257812 -27.898438 18.3125 -41.953125 C 9.375 -56.015625 4.90625 -71.207031 4.90625 -87.53125 C 4.90625 -99.882812 7.53125 -111.738281 12.78125 -123.09375 C 18.03125 -134.457031 25.019531 -144.1875 33.75 -152.28125 C 42.488281 -160.375 52.675781 -166.832031 64.3125 -171.65625 C 75.957031 -176.488281 87.890625 -178.90625 100.109375 -178.90625 C 111.460938 -178.90625 121.929688 -177.554688 131.515625 -174.859375 C 141.097656 -172.160156 147.878906 -169.460938 151.859375 -166.765625 L 157.828125 -162.71875 L 140.78125 -128.640625 C 139.789062 -129.492188 138.300781 -130.523438 136.3125 -131.734375 C 134.320312 -132.941406 130.34375 -134.535156 124.375 -136.515625 C 118.414062 -138.503906 112.382812 -139.5 106.28125 -139.5 C 96.625 -139.5 87.960938 -137.9375 80.296875 -134.8125 C 72.628906 -131.695312 66.554688 -127.582031 62.078125 -122.46875 C 57.609375 -117.351562 54.203125 -111.847656 51.859375 -105.953125 C 49.515625 -100.066406 48.34375 -94.070312 48.34375 -87.96875 C 48.34375 -74.613281 53.347656 -62.644531 63.359375 -52.0625 C 73.367188 -41.488281 87.675781 -36.203125 106.28125 -36.203125 Z M 106.28125 -36.203125"/></g></g></g><g fill-opacity="1" fill="#6085a4"><g transform="translate(805.335028, 897.486984)"><g><path d="M 20.234375 -13.53125 C 10.015625 -24.675781 4.90625 -38.335938 4.90625 -54.515625 C 4.90625 -70.703125 10.015625 -84.40625 20.234375 -95.625 C 30.453125 -106.84375 43.441406 -112.453125 59.203125 -112.453125 C 73.691406 -112.453125 85.617188 -107.910156 94.984375 -98.828125 L 94.984375 -109.265625 L 132.6875 -109.265625 L 132.6875 0 L 95.421875 0 L 95.421875 -12.359375 L 94.984375 -12.359375 C 85.617188 -1.992188 73.691406 3.1875 59.203125 3.1875 C 43.441406 3.1875 30.453125 -2.382812 20.234375 -13.53125 Z M 52.28125 -73.046875 C 47.382812 -68.222656 44.9375 -62.046875 44.9375 -54.515625 C 44.9375 -46.992188 47.28125 -40.851562 51.96875 -36.09375 C 56.65625 -31.34375 62.832031 -28.96875 70.5 -28.96875 C 77.882812 -28.96875 83.953125 -31.378906 88.703125 -36.203125 C 93.460938 -41.035156 95.84375 -47.144531 95.84375 -54.53125 C 95.84375 -62.050781 93.390625 -68.222656 88.484375 -73.046875 C 83.585938 -77.878906 77.59375 -80.296875 70.5 -80.296875 C 63.257812 -80.296875 57.1875 -77.878906 52.28125 -73.046875 Z M 52.28125 -73.046875"/></g></g></g><g fill-opacity="1" fill="#6085a4"><g transform="translate(950.800131, 897.486984)"><g><path d="M 12.78125 0 L 12.78125 -183.171875 L 50.484375 -183.171875 L 50.484375 0 Z M 12.78125 0"/></g></g></g><g fill-opacity="1" fill="#6085a4"><g transform="translate(1014.055108, 897.486984)"><g><path d="M 70.921875 -81.578125 C 63.828125 -81.578125 57.722656 -78.945312 52.609375 -73.6875 C 47.492188 -68.4375 44.9375 -62.117188 44.9375 -54.734375 C 44.9375 -47.210938 47.492188 -40.820312 52.609375 -35.5625 C 57.722656 -30.3125 63.828125 -27.6875 70.921875 -27.6875 C 74.328125 -27.6875 77.554688 -28.113281 80.609375 -28.96875 C 83.660156 -29.820312 85.898438 -30.671875 87.328125 -31.515625 L 89.234375 -32.796875 L 102.015625 -6.609375 C 101.023438 -5.890625 99.640625 -5 97.859375 -3.9375 C 96.085938 -2.875 92.039062 -1.421875 85.71875 0.421875 C 79.40625 2.265625 72.628906 3.1875 65.390625 3.1875 C 49.335938 3.1875 35.242188 -2.453125 23.109375 -13.734375 C 10.972656 -25.023438 4.90625 -38.550781 4.90625 -54.3125 C 4.90625 -70.21875 10.972656 -83.882812 23.109375 -95.3125 C 35.242188 -106.738281 49.335938 -112.453125 65.390625 -112.453125 C 72.628906 -112.453125 79.300781 -111.597656 85.40625 -109.890625 C 91.507812 -108.191406 95.84375 -106.488281 98.40625 -104.78125 L 102.015625 -102.234375 L 89.234375 -76.46875 C 84.554688 -79.875 78.453125 -81.578125 70.921875 -81.578125 Z M 70.921875 -81.578125"/></g></g></g></svg>