<svg xmlns="http://www.w3.org/2000/svg" xmlns:xlink="http://www.w3.org/1999/xlink" zoomAndPan="magnify" preserveAspectRatio="xMidYMid meet" version="1.0" viewBox="78.25 323.87 1033.3 1037.34"><defs><g/><clipPath id="53425b6b47"><path d="M 78.25 323.871094 L 1111.550781 323.871094 L 1111.550781 1360 L 78.25 1360 Z M 78.25 323.871094 " clip-rule="nonzero"/></clipPath><clipPath id="d2dce7427e"><path d="M 594.902344 323.871094 C 309.5625 323.871094 78.25 555.742188 78.25 841.765625 C 78.25 1127.789062 309.5625 1359.65625 594.902344 1359.65625 C 880.238281 1359.65625 1111.550781 1127.789062 1111.550781 841.765625 C 1111.550781 555.742188 880.238281 323.871094 594.902344 323.871094 Z M 594.902344 323.871094 " clip-rule="nonzero"/></clipPath><clipPath id="047887bcec"><path d="M 522.355469 775.613281 L 649.023438 775.613281 L 649.023438 972.285156 L 522.355469 972.285156 Z M 522.355469 775.613281 " clip-rule="nonzero"/></clipPath><clipPath id="bb1ce6bef9"><path d="M 432 648 L 650 648 L 650 866 L 432 866 Z M 432 648 " clip-rule="nonzero"/></clipPath><clipPath id="468ffbada9"><path d="M 522.070312 648.949219 L 649.074219 775.957031 L 559.507812 865.523438 L 432.5 738.519531 Z M 522.070312 648.949219 " clip-rule="nonzero"/></clipPath><clipPath id="b66d7ce10b"><path d="M 522.070312 648.949219 L 649.027344 775.90625 L 559.457031 865.476562 L 432.5 738.519531 Z M 522.070312 648.949219 " clip-rule="nonzero"/></clipPath><clipPath id="4b2fa2e8de"><path d="M 325.6875 648.9375 L 522.355469 648.9375 L 522.355469 775.605469 L 325.6875 775.605469 Z M 325.6875 648.9375 " clip-rule="nonzero"/></clipPath><clipPath id="bdfb0c5430"><path d="M 540.773438 434 L 667.441406 434 L 667.441406 630.535156 L 540.773438 630.535156 Z M 540.773438 434 " clip-rule="nonzero"/></clipPath><clipPath id="d7329e9ca5"><path d="M 540 540 L 758 540 L 758 758 L 540 758 Z M 540 540 " clip-rule="nonzero"/></clipPath><clipPath id="0f837452c3"><path d="M 667.722656 757.199219 L 540.714844 630.195312 L 630.285156 540.625 L 757.289062 667.628906 Z M 667.722656 757.199219 " clip-rule="nonzero"/></clipPath><clipPath id="a69b3c02d0"><path d="M 667.722656 757.199219 L 540.765625 630.242188 L 630.332031 540.671875 L 757.289062 667.628906 Z M 667.722656 757.199219 " clip-rule="nonzero"/></clipPath><clipPath id="942c6f65db"><path d="M 667.4375 630.542969 L 864 630.542969 L 864 757.210938 L 667.4375 757.210938 Z M 667.4375 630.542969 " clip-rule="nonzero"/></clipPath></defs><g clip-path="url(#53425b6b47)"><g clip-path="url(#d2dce7427e)"><path fill="#ffffff" d="M 78.25 323.871094 L 1111.550781 323.871094 L 1111.550781 1361.207031 L 78.25 1361.207031 Z M 78.25 323.871094 " fill-opacity="1" fill-rule="nonzero"/></g></g><g clip-path="url(#047887bcec)"><path fill="#6085a4" d="M 649.023438 775.613281 L 649.023438 972.050781 L 522.355469 972.050781 L 522.355469 775.613281 Z M 649.023438 775.613281 " fill-opacity="1" fill-rule="nonzero"/></g><g clip-path="url(#bb1ce6bef9)"><g clip-path="url(#468ffbada9)"><g clip-path="url(#b66d7ce10b)"><path fill="#6085a4" d="M 522.070312 648.949219 L 649.074219 775.957031 L 559.507812 865.523438 L 432.5 738.519531 Z M 522.070312 648.949219 " fill-opacity="1" fill-rule="nonzero"/></g></g></g><g clip-path="url(#4b2fa2e8de)"><path fill="#6085a4" d="M 522.355469 775.605469 L 325.921875 775.605469 L 325.921875 648.9375 L 522.355469 648.9375 Z M 522.355469 775.605469 " fill-opacity="1" fill-rule="nonzero"/></g><g clip-path="url(#bdfb0c5430)"><path fill="#d43434" d="M 540.773438 630.535156 L 540.773438 434.097656 L 667.441406 434.097656 L 667.441406 630.535156 Z M 540.773438 630.535156 " fill-opacity="1" fill-rule="nonzero"/></g><g clip-path="url(#d7329e9ca5)"><g clip-path="url(#0f837452c3)"><g clip-path="url(#a69b3c02d0)"><path fill="#d43434" d="M 667.722656 757.199219 L 540.714844 630.191406 L 630.285156 540.625 L 757.289062 667.628906 Z M 667.722656 757.199219 " fill-opacity="1" fill-rule="nonzero"/></g></g></g><g clip-path="url(#942c6f65db)"><path fill="#d43434" d="M 667.4375 630.542969 L 863.871094 630.542969 L 863.871094 757.210938 L 667.4375 757.210938 Z M 667.4375 630.542969 " fill-opacity="1" fill-rule="nonzero"/></g><g fill="#d43434" fill-opacity="1"><g transform="translate(239.504424, 1127.337187)"><g><path d="M 52.609375 -121.40625 C 59.066406 -121.40625 65.378906 -120.460938 71.546875 -118.578125 C 77.710938 -116.703125 82.289062 -114.851562 85.28125 -113.03125 L 89.609375 -110.140625 L 78.625 -88.453125 C 77.757812 -89.035156 76.554688 -89.78125 75.015625 -90.6875 C 73.472656 -91.601562 70.582031 -92.832031 66.34375 -94.375 C 62.101562 -95.914062 58.148438 -96.6875 54.484375 -96.6875 C 49.960938 -96.6875 46.472656 -95.722656 44.015625 -93.796875 C 41.554688 -91.867188 40.328125 -89.269531 40.328125 -86 C 40.328125 -84.363281 40.90625 -82.84375 42.0625 -81.4375 C 43.21875 -80.039062 45.191406 -78.546875 47.984375 -76.953125 C 50.773438 -75.367188 53.226562 -74.09375 55.34375 -73.125 C 57.46875 -72.164062 60.75 -70.722656 65.1875 -68.796875 C 72.894531 -65.523438 79.46875 -61.066406 84.90625 -55.421875 C 90.351562 -49.785156 93.078125 -43.40625 93.078125 -36.28125 C 93.078125 -29.4375 91.847656 -23.460938 89.390625 -18.359375 C 86.929688 -13.253906 83.554688 -9.253906 79.265625 -6.359375 C 74.984375 -3.472656 70.238281 -1.332031 65.03125 0.0625 C 59.832031 1.46875 54.195312 2.171875 48.125 2.171875 C 42.925781 2.171875 37.820312 1.640625 32.8125 0.578125 C 27.800781 -0.484375 23.609375 -1.804688 20.234375 -3.390625 C 16.859375 -4.984375 13.820312 -6.550781 11.125 -8.09375 C 8.425781 -9.632812 6.453125 -10.9375 5.203125 -12 L 3.328125 -13.59375 L 16.90625 -36.421875 C 18.0625 -35.460938 19.648438 -34.234375 21.671875 -32.734375 C 23.703125 -31.242188 27.296875 -29.242188 32.453125 -26.734375 C 37.609375 -24.234375 42.160156 -22.984375 46.109375 -22.984375 C 57.578125 -22.984375 63.3125 -26.882812 63.3125 -34.6875 C 63.3125 -36.320312 62.898438 -37.835938 62.078125 -39.234375 C 61.253906 -40.640625 59.804688 -42.039062 57.734375 -43.4375 C 55.671875 -44.832031 53.84375 -45.9375 52.25 -46.75 C 50.65625 -47.570312 48.050781 -48.828125 44.4375 -50.515625 C 40.832031 -52.203125 38.160156 -53.476562 36.421875 -54.34375 C 29.191406 -57.90625 23.601562 -62.359375 19.65625 -67.703125 C 15.707031 -73.054688 13.734375 -78.816406 13.734375 -84.984375 C 13.734375 -95.679688 17.679688 -104.425781 25.578125 -111.21875 C 33.484375 -118.007812 42.492188 -121.40625 52.609375 -121.40625 Z M 52.609375 -121.40625 "/></g></g></g><g fill="#d43434" fill-opacity="1"><g transform="translate(336.622479, 1127.337187)"><g><path d="M 32.8125 -74.140625 L 32.8125 -38.875 C 32.8125 -31.550781 33.914062 -26.347656 36.125 -23.265625 C 38.34375 -20.179688 42.101562 -18.640625 47.40625 -18.640625 C 52.707031 -18.640625 56.460938 -20.179688 58.671875 -23.265625 C 60.890625 -26.347656 62 -31.550781 62 -38.875 L 62 -74.140625 L 87.59375 -74.140625 L 87.59375 -32.671875 C 87.59375 -20.335938 84.382812 -11.445312 77.96875 -6 C 71.5625 -0.550781 61.375 2.171875 47.40625 2.171875 C 33.4375 2.171875 23.25 -0.550781 16.84375 -6 C 10.4375 -11.445312 7.234375 -20.335938 7.234375 -32.671875 L 7.234375 -74.140625 Z M 32.8125 -74.140625 "/></g></g></g><g fill="#d43434" fill-opacity="1"><g transform="translate(431.428213, 1127.337187)"><g><path d="M 84.984375 -64.96875 C 91.921875 -57.40625 95.390625 -48.128906 95.390625 -37.140625 C 95.390625 -26.160156 91.921875 -16.863281 84.984375 -9.25 C 78.046875 -1.632812 69.226562 2.171875 58.53125 2.171875 C 48.707031 2.171875 40.613281 -0.910156 34.25 -7.078125 L 34.25 37.578125 L 8.671875 37.578125 L 8.671875 -74.140625 L 33.96875 -74.140625 L 33.96875 -65.765625 L 34.25 -65.765625 C 40.613281 -72.796875 48.707031 -76.3125 58.53125 -76.3125 C 69.226562 -76.3125 78.046875 -72.53125 84.984375 -64.96875 Z M 63.234375 -24.5625 C 66.554688 -27.84375 68.21875 -32.035156 68.21875 -37.140625 C 68.21875 -42.253906 66.628906 -46.421875 63.453125 -49.640625 C 60.273438 -52.867188 56.082031 -54.484375 50.875 -54.484375 C 45.863281 -54.484375 41.742188 -52.84375 38.515625 -49.5625 C 35.285156 -46.289062 33.671875 -42.148438 33.671875 -37.140625 C 33.671875 -32.035156 35.332031 -27.84375 38.65625 -24.5625 C 41.988281 -21.289062 46.0625 -19.65625 50.875 -19.65625 C 55.789062 -19.65625 59.910156 -21.289062 63.234375 -24.5625 Z M 63.234375 -24.5625 "/></g></g></g><g fill="#d43434" fill-opacity="1"><g transform="translate(530.135995, 1127.337187)"><g><path d="M 13.734375 -9.171875 C 6.796875 -16.742188 3.328125 -26.019531 3.328125 -37 C 3.328125 -47.988281 6.796875 -57.285156 13.734375 -64.890625 C 20.671875 -72.503906 29.488281 -76.3125 40.1875 -76.3125 C 50.007812 -76.3125 58.101562 -73.226562 64.46875 -67.0625 L 64.46875 -74.140625 L 90.046875 -74.140625 L 90.046875 0 L 64.75 0 L 64.75 -8.390625 L 64.46875 -8.390625 C 58.101562 -1.347656 50.007812 2.171875 40.1875 2.171875 C 29.488281 2.171875 20.671875 -1.609375 13.734375 -9.171875 Z M 35.484375 -49.5625 C 32.160156 -46.289062 30.5 -42.101562 30.5 -37 C 30.5 -31.894531 32.085938 -27.726562 35.265625 -24.5 C 38.441406 -21.269531 42.632812 -19.65625 47.84375 -19.65625 C 52.851562 -19.65625 56.972656 -21.289062 60.203125 -24.5625 C 63.429688 -27.84375 65.046875 -31.988281 65.046875 -37 C 65.046875 -42.101562 63.378906 -46.289062 60.046875 -49.5625 C 56.722656 -52.84375 52.65625 -54.484375 47.84375 -54.484375 C 42.925781 -54.484375 38.804688 -52.84375 35.484375 -49.5625 Z M 35.484375 -49.5625 "/></g></g></g><g fill="#6085a4" fill-opacity="1"><g transform="translate(628.870207, 1127.337187)"><g><path d="M 72.125 -24.578125 C 76.269531 -24.578125 80.289062 -25.203125 84.1875 -26.453125 C 88.09375 -27.703125 90.960938 -28.90625 92.796875 -30.0625 L 95.53125 -31.9375 L 107.09375 -8.8125 C 106.707031 -8.53125 106.175781 -8.144531 105.5 -7.65625 C 104.832031 -7.175781 103.269531 -6.285156 100.8125 -4.984375 C 98.351562 -3.679688 95.726562 -2.546875 92.9375 -1.578125 C 90.144531 -0.617188 86.484375 0.242188 81.953125 1.015625 C 77.421875 1.785156 72.75 2.171875 67.9375 2.171875 C 56.851562 2.171875 46.347656 -0.550781 36.421875 -6 C 26.492188 -11.445312 18.492188 -18.9375 12.421875 -28.46875 C 6.359375 -38.007812 3.328125 -48.320312 3.328125 -59.40625 C 3.328125 -67.789062 5.109375 -75.835938 8.671875 -83.546875 C 12.234375 -91.253906 16.976562 -97.851562 22.90625 -103.34375 C 28.832031 -108.832031 35.742188 -113.210938 43.640625 -116.484375 C 51.546875 -119.765625 59.644531 -121.40625 67.9375 -121.40625 C 75.644531 -121.40625 82.75 -120.488281 89.25 -118.65625 C 95.75 -116.832031 100.347656 -115.003906 103.046875 -113.171875 L 107.09375 -110.421875 L 95.53125 -87.296875 C 94.863281 -87.878906 93.851562 -88.578125 92.5 -89.390625 C 91.15625 -90.210938 88.457031 -91.296875 84.40625 -92.640625 C 80.363281 -93.992188 76.269531 -94.671875 72.125 -94.671875 C 65.570312 -94.671875 59.691406 -93.609375 54.484375 -91.484375 C 49.285156 -89.367188 45.164062 -86.578125 42.125 -83.109375 C 39.09375 -79.640625 36.78125 -75.90625 35.1875 -71.90625 C 33.601562 -67.90625 32.8125 -63.832031 32.8125 -59.6875 C 32.8125 -50.632812 36.207031 -42.519531 43 -35.34375 C 49.789062 -28.164062 59.5 -24.578125 72.125 -24.578125 Z M 72.125 -24.578125 "/></g></g></g><g fill="#6085a4" fill-opacity="1"><g transform="translate(737.694461, 1127.337187)"><g><path d="M 13.734375 -9.171875 C 6.796875 -16.742188 3.328125 -26.019531 3.328125 -37 C 3.328125 -47.988281 6.796875 -57.285156 13.734375 -64.890625 C 20.671875 -72.503906 29.488281 -76.3125 40.1875 -76.3125 C 50.007812 -76.3125 58.101562 -73.226562 64.46875 -67.0625 L 64.46875 -74.140625 L 90.046875 -74.140625 L 90.046875 0 L 64.75 0 L 64.75 -8.390625 L 64.46875 -8.390625 C 58.101562 -1.347656 50.007812 2.171875 40.1875 2.171875 C 29.488281 2.171875 20.671875 -1.609375 13.734375 -9.171875 Z M 35.484375 -49.5625 C 32.160156 -46.289062 30.5 -42.101562 30.5 -37 C 30.5 -31.894531 32.085938 -27.726562 35.265625 -24.5 C 38.441406 -21.269531 42.632812 -19.65625 47.84375 -19.65625 C 52.851562 -19.65625 56.972656 -21.289062 60.203125 -24.5625 C 63.429688 -27.84375 65.046875 -31.988281 65.046875 -37 C 65.046875 -42.101562 63.378906 -46.289062 60.046875 -49.5625 C 56.722656 -52.84375 52.65625 -54.484375 47.84375 -54.484375 C 42.925781 -54.484375 38.804688 -52.84375 35.484375 -49.5625 Z M 35.484375 -49.5625 "/></g></g></g><g fill="#6085a4" fill-opacity="1"><g transform="translate(836.402243, 1127.337187)"><g><path d="M 8.671875 0 L 8.671875 -124.296875 L 34.25 -124.296875 L 34.25 0 Z M 8.671875 0 "/></g></g></g><g fill="#6085a4" fill-opacity="1"><g transform="translate(879.324967, 1127.337187)"><g><path d="M 48.125 -55.359375 C 43.3125 -55.359375 39.171875 -53.570312 35.703125 -50 C 32.234375 -46.4375 30.5 -42.148438 30.5 -37.140625 C 30.5 -32.035156 32.234375 -27.703125 35.703125 -24.140625 C 39.171875 -20.578125 43.3125 -18.796875 48.125 -18.796875 C 50.4375 -18.796875 52.628906 -19.082031 54.703125 -19.65625 C 56.773438 -20.238281 58.296875 -20.816406 59.265625 -21.390625 L 60.5625 -22.265625 L 69.234375 -4.484375 C 68.554688 -4.003906 67.613281 -3.398438 66.40625 -2.671875 C 65.207031 -1.953125 62.460938 -0.96875 58.171875 0.28125 C 53.890625 1.539062 49.289062 2.171875 44.375 2.171875 C 33.488281 2.171875 23.925781 -1.65625 15.6875 -9.3125 C 7.445312 -16.976562 3.328125 -26.160156 3.328125 -36.859375 C 3.328125 -47.648438 7.445312 -56.921875 15.6875 -64.671875 C 23.925781 -72.429688 33.488281 -76.3125 44.375 -76.3125 C 49.289062 -76.3125 53.816406 -75.734375 57.953125 -74.578125 C 62.097656 -73.421875 65.039062 -72.265625 66.78125 -71.109375 L 69.234375 -69.375 L 60.5625 -51.890625 C 57.382812 -54.203125 53.238281 -55.359375 48.125 -55.359375 Z M 48.125 -55.359375 "/></g></g></g></svg>